<?xml version="1.0" standalone="no"?>
<!DOCTYPE svg PUBLIC "-//W3C//DTD SVG 20010904//EN"
 "http://www.w3.org/TR/2001/REC-SVG-20010904/DTD/svg10.dtd">
<svg version="1.0" xmlns="http://www.w3.org/2000/svg"
 width="2229.000000pt" height="2229.000000pt" viewBox="0 0 2229.000000 2229.000000"
 preserveAspectRatio="xMidYMid meet">
<metadata>
Created by potrace 1.11, written by Peter Selinger 2001-2013
</metadata>
<g transform="translate(0.000000,2229.000000) scale(0.100000,-0.100000)"
fill="#000000" stroke="none">
<path d="M6215 18413 c-164 -16 -334 -73 -478 -162 -77 -47 -71 -43 -147 -107
-284 -240 -476 -618 -517 -1019 -13 -130 -7 -384 12 -475 3 -14 10 -45 15 -70
5 -25 12 -56 14 -69 17 -82 85 -257 139 -361 168 -320 438 -554 752 -650 146
-45 90 -44 2540 -45 1282 -1 2359 -5 2395 -9 36 -4 88 -9 115 -12 92 -10 289
-45 417 -75 407 -95 788 -255 1133 -477 356 -229 670 -532 916 -882 148 -212
300 -490 392 -720 21 -52 43 -104 48 -115 25 -56 135 -409 154 -495 2 -8 13
-55 25 -105 47 -195 95 -484 115 -700 3 -33 7 -73 10 -90 2 -16 7 -77 10 -135
4 -58 8 -132 10 -165 5 -71 5 -624 1 -710 -5 -88 -17 -266 -21 -295 -1 -14 -6
-59 -10 -100 -4 -41 -9 -84 -11 -95 -2 -11 -6 -45 -9 -75 -3 -30 -8 -66 -10
-80 -17 -105 -37 -218 -40 -235 -26 -130 -39 -191 -70 -310 -20 -77 -38 -147
-40 -155 -24 -97 -121 -363 -186 -512 -73 -170 -230 -461 -303 -563 -11 -16
-25 -37 -31 -46 -66 -108 -224 -299 -401 -483 -24 -25 -173 -156 -229 -202
-188 -154 -379 -276 -605 -389 -109 -55 -180 -85 -380 -165 -96 -38 -416 -127
-520 -145 -19 -3 -42 -8 -50 -10 -19 -6 -267 -42 -345 -51 -33 -4 -1117 -8
-2410 -10 -1292 -1 -2375 -5 -2405 -8 -149 -15 -262 -48 -393 -115 -319 -162
-563 -471 -681 -861 -60 -200 -86 -463 -65 -660 13 -123 20 -160 50 -277 85
-330 263 -611 504 -798 163 -126 308 -191 520 -232 55 -11 4807 -10 4919 0 50
5 97 10 105 12 9 1 56 6 105 10 50 4 97 8 105 10 16 3 70 10 159 21 26 3 65 9
87 14 22 5 60 12 85 15 60 9 262 48 380 75 714 159 1411 427 1978 759 62 36
132 77 155 90 146 83 468 310 652 459 275 224 566 510 779 766 32 39 68 82 80
96 11 14 43 55 71 90 27 36 53 70 57 75 111 144 310 451 433 670 65 116 196
380 258 520 69 158 116 275 117 290 0 3 6 18 14 33 25 48 180 509 192 568 1 7
13 52 27 100 46 163 105 418 152 659 6 31 22 126 31 180 2 17 6 41 9 55 12 66
42 286 60 440 5 42 7 68 20 195 3 28 8 88 11 135 3 47 8 105 9 130 26 335 26
1307 1 1505 -2 17 -7 77 -10 135 -4 58 -9 123 -11 145 -11 98 -15 134 -20 190
-5 52 -25 209 -41 325 -3 19 -12 76 -20 125 -8 50 -17 104 -20 120 -16 101
-67 357 -94 470 -12 50 -23 97 -25 105 -7 33 -88 330 -112 405 -96 312 -219
635 -335 885 -39 83 -170 345 -198 396 -70 124 -147 254 -172 291 -15 23 -28
44 -28 46 0 28 -421 601 -490 667 -3 3 -36 41 -75 85 -94 109 -366 383 -471
475 -46 41 -95 84 -108 95 -12 12 -45 39 -72 60 -27 22 -51 42 -54 45 -3 3
-25 21 -50 40 -25 19 -52 41 -60 47 -8 7 -49 37 -90 67 -41 31 -80 59 -85 64
-58 48 -448 294 -595 374 -153 84 -374 198 -384 198 -2 0 -50 22 -107 49 -133
62 -347 150 -508 207 -69 25 -135 49 -146 54 -45 21 -420 130 -600 176 -16 4
-34 8 -40 10 -27 7 -374 83 -405 88 -19 3 -46 8 -60 10 -145 27 -303 51 -410
61 -36 3 -76 8 -90 10 -14 3 -56 7 -95 11 -38 3 -86 9 -105 11 -36 5 -4742 11
-4795 6z"/>
<path d="M6105 14649 c-168 -15 -266 -40 -391 -99 -309 -145 -531 -409 -614
-730 -15 -54 -17 -69 -29 -151 -5 -36 -8 -1162 -7 -2559 l2 -2495 22 -90 c42
-175 101 -305 196 -430 185 -243 441 -395 741 -438 117 -17 533 -15 635 3 89
15 222 57 305 96 249 118 466 358 564 625 34 93 46 148 59 276 10 91 7 4951
-2 5028 -22 175 -110 386 -222 535 -50 64 -188 191 -265 243 -116 77 -261 140
-373 163 -125 25 -458 37 -621 23z"/>
</g>
</svg>
